<svg width="20" height="20" viewBox="0 0 20 20" fill="none" xmlns="http://www.w3.org/2000/svg">
<path d="M3.33301 8.33333L2.6259 9.04044L1.91879 8.33333L2.6259 7.62623L3.33301 8.33333ZM17.6663 15C17.6663 15.5523 17.2186 16 16.6663 16C16.1141 16 15.6663 15.5523 15.6663 15L17.6663 15ZM8.6259 15.0404L2.6259 9.04044L4.04011 7.62623L10.0401 13.6262L8.6259 15.0404ZM2.6259 7.62623L8.6259 1.62623L10.0401 3.04044L4.04011 9.04044L2.6259 7.62623ZM3.33301 7.33333L10.6663 7.33333L10.6663 9.33333L3.33301 9.33333L3.33301 7.33333ZM17.6663 14.3333L17.6663 15L15.6663 15L15.6663 14.3333L17.6663 14.3333ZM10.6663 7.33333C14.5323 7.33333 17.6663 10.4673 17.6663 14.3333L15.6663 14.3333C15.6663 11.5719 13.4278 9.33333 10.6663 9.33333L10.6663 7.33333Z" fill="#CCD2E3"/>
</svg>
