<svg width="32" height="32" viewBox="0 0 32 32" fill="none" xmlns="http://www.w3.org/2000/svg">
<path d="M16.2917 0C7.30192 0 0 7.1712 0 16C0 24.8288 7.30192 32 16.2917 32C23.3169 32 27.6056 28.8261 29.8385 24.8913C32.0714 20.9565 32.3537 16.3342 31.6758 13.1739L31.543 12.6304H30.9896L16.2917 12.6087H15.5833V19.8478H23.6849C22.4619 22.6304 19.9717 24.5435 16.2917 24.5435C11.4827 24.5435 7.59245 20.7228 7.59245 16C7.59245 11.2772 11.4827 7.45652 16.2917 7.45652C18.4526 7.45652 20.4144 8.24185 21.9362 9.52174L22.4453 9.93478L27.293 5.17391L27.8021 4.65217L27.2708 4.17391C24.3766 1.58424 20.514 0 16.2917 0V0ZM16.2917 1.3913C19.8859 1.3913 23.1287 2.68206 25.6992 4.76087L22.2904 8.1087C20.6053 6.87228 18.5578 6.06522 16.2917 6.06522C10.7163 6.06522 6.17578 10.5245 6.17578 16C6.17578 21.4755 10.7163 25.9348 16.2917 25.9348C20.9318 25.9348 24.2687 23.1413 25.4557 19.3478L25.7435 18.4565H17V14L30.3477 14.0217C30.818 16.8288 30.5054 20.8587 28.599 24.2174C26.5736 27.7826 22.8936 30.6087 16.2917 30.6087C8.06559 30.6087 1.41667 24.0761 1.41667 16C1.41667 7.92391 8.06559 1.3913 16.2917 1.3913V1.3913Z" fill="white" fill-opacity="0.8"/>
</svg>
