<svg width="21" height="20" viewBox="0 0 21 20" fill="none" xmlns="http://www.w3.org/2000/svg">
<path d="M15.8421 18.7308L11.964 19.2802C10.4398 19.4961 9.67769 19.6041 9.0692 19.4326C8.20746 19.1898 7.4992 18.5748 7.13792 17.7556C6.88281 17.1772 6.88281 16.4075 6.88281 14.8681L6.88281 4.93403C6.88281 3.57747 6.88281 2.89919 7.0819 2.38031C7.43969 1.44776 8.23815 0.754446 9.21166 0.530993C9.75334 0.406658 10.4249 0.501799 11.7681 0.692078H11.7681L15.8421 1.26923C18.3013 1.61762 19.5309 1.79181 20.2657 2.63803C21.0005 3.48424 21.0005 4.72613 21.0005 7.20991V12.7901C21.0005 15.2739 21.0005 16.5158 20.2657 17.362C19.5309 18.2082 18.3013 18.3824 15.8421 18.7308Z" fill="#8A7E9E" fill-opacity="0.25"/>
<path d="M13.9414 10.0002L14.3783 10.4115L14.7654 10.0002L14.3783 9.58902L13.9414 10.0002ZM1.00023 9.40024C0.668857 9.40024 0.400228 9.66887 0.400228 10.0002C0.400228 10.3316 0.668858 10.6002 1.00023 10.6002L1.00023 9.40024ZM11.5885 7.50024L11.1515 7.91146L11.1515 7.91146L11.5885 7.50024ZM9.67244 15.4115L14.3783 10.4115L13.5045 9.58902L8.7986 14.589L9.67244 15.4115ZM13.9414 9.40024L1.00023 9.40024L1.00023 10.6002L13.9414 10.6002L13.9414 9.40024ZM14.3783 9.58902L12.0254 7.08902L11.1515 7.91146L13.5045 10.4115L14.3783 9.58902ZM12.0254 7.08902L9.67244 4.58902L8.7986 5.41146L11.1515 7.91146L12.0254 7.08902Z" fill="white" fill-opacity="0.8"/>
</svg>
