<svg width="21" height="20" viewBox="0 0 21 20" fill="none" xmlns="http://www.w3.org/2000/svg">
<path d="M13.4301 1.19857L15.9312 0.802558C17.3964 0.570575 18.129 0.454583 18.717 0.599303C19.6378 0.825937 20.3973 1.47461 20.7651 2.34867C21 2.90681 21 3.64852 21 5.13193V15.066C21 16.367 21 17.0176 20.8185 17.5154C20.4581 18.5035 19.6067 19.2308 18.5744 19.4321C18.0543 19.5336 17.4117 19.4319 16.1267 19.2284L16.1267 19.2284L13.4301 18.8014C11.0141 18.4189 9.80608 18.2276 9.08725 17.386C8.36842 16.5444 8.36842 15.3214 8.36842 12.8753V7.12474C8.36842 4.67863 8.36842 3.45557 9.08725 2.61397C9.80608 1.77237 11.0141 1.5811 13.4301 1.19857Z" fill="#733F9C" fill-opacity="0.5"/>
<path d="M1 10L0.541053 9.61352L0.215595 10L0.541053 10.3865L1 10ZM12.5789 10.6C12.9103 10.6 13.1789 10.3314 13.1789 10C13.1789 9.66863 12.9103 9.4 12.5789 9.4V10.6ZM4.75158 4.61352L0.541053 9.61352L1.45895 10.3865L5.66947 5.38648L4.75158 4.61352ZM0.541053 10.3865L4.75158 15.3865L5.66947 14.6135L1.45895 9.61352L0.541053 10.3865ZM1 10.6H12.5789V9.4H1V10.6Z" fill="white" fill-opacity="0.8"/>
</svg>
