<svg width="18" height="20" viewBox="0 0 18 20" fill="none" xmlns="http://www.w3.org/2000/svg">
<path d="M2.45007 0.000156183C1.18735 0.0139328 0 0.989115 0 2.30667V17.6925C0 19.4492 2.11235 20.5977 3.6975 19.671L16.8547 11.9766C18.3818 11.0831 18.3818 8.91608 16.8547 8.02256L3.6975 0.329652C3.30126 0.0977316 2.87098 -0.00444542 2.45007 0.000147983V0.000156183ZM2.40849 1.51075C2.54681 1.51465 2.69221 1.55514 2.8323 1.63714L15.9895 9.33155C16.5241 9.64439 16.5241 10.3563 15.9895 10.6691L2.8323 18.362C2.27213 18.6895 1.63764 18.35 1.63764 17.6925V2.30668C1.63764 1.97792 1.7961 1.72849 2.02467 1.60253C2.13895 1.53955 2.27018 1.50686 2.40849 1.51075H2.40849Z" fill="white" fill-opacity="0.8"/>
</svg>
