<svg width="20" height="20" viewBox="0 0 20 20" fill="none" xmlns="http://www.w3.org/2000/svg">
<path fill-rule="evenodd" clip-rule="evenodd" d="M11.72 2.38C11.7475 2.47184 11.7585 2.58166 11.7804 2.80128C11.8219 3.21624 11.8427 3.42371 11.895 3.55471C12.1035 4.07689 12.7014 4.32456 13.2181 4.10277C13.3478 4.04713 13.5091 3.9151 13.8319 3.65103L13.8319 3.65102L13.8319 3.65102C14.0027 3.51126 14.0881 3.44138 14.1725 3.39587C14.5001 3.21922 14.8987 3.2391 15.207 3.44747C15.2865 3.50115 15.3645 3.57918 15.5206 3.73525L16.2651 4.4798C16.4212 4.63588 16.4992 4.71391 16.5529 4.79336C16.7613 5.10172 16.7812 5.5003 16.6045 5.82787C16.559 5.91226 16.4891 5.99767 16.3493 6.1685L16.3493 6.16851C16.0853 6.49127 15.9532 6.65265 15.8976 6.78228C15.6758 7.29896 15.9235 7.89686 16.4456 8.1054C16.5766 8.15771 16.7841 8.17846 17.1991 8.21996C17.4187 8.24192 17.5286 8.25291 17.6204 8.2804C17.977 8.38712 18.2447 8.68301 18.3154 9.04838C18.3337 9.14252 18.3337 9.25289 18.3337 9.47362V10.5266C18.3337 10.7473 18.3337 10.8576 18.3155 10.9517C18.2448 11.3171 17.9769 11.6131 17.6203 11.7198C17.5285 11.7473 17.4187 11.7582 17.1992 11.7802C16.7844 11.8217 16.577 11.8424 16.4461 11.8947C15.9238 12.1032 15.676 12.7012 15.898 13.218C15.9536 13.3475 16.0856 13.5088 16.3495 13.8314L16.3495 13.8314L16.3495 13.8314C16.4892 14.0021 16.559 14.0875 16.6045 14.1718C16.7812 14.4994 16.7613 14.8981 16.5529 15.2065C16.4992 15.2859 16.4212 15.3639 16.2653 15.5199L15.5206 16.2645C15.3645 16.4206 15.2865 16.4986 15.2071 16.5523C14.8987 16.7607 14.5001 16.7806 14.1725 16.6039C14.0882 16.5584 14.0027 16.4885 13.8319 16.3488L13.8319 16.3488L13.8319 16.3488C13.5092 16.0847 13.3478 15.9527 13.2182 15.897C12.7015 15.6752 12.1036 15.9229 11.895 16.4451C11.8427 16.5761 11.822 16.7836 11.7805 17.1987L11.7805 17.1987C11.7585 17.4185 11.7475 17.5284 11.72 17.6203C11.6132 17.9767 11.3174 18.2444 10.9521 18.3152C10.8579 18.3334 10.7475 18.3334 10.5267 18.3334H9.47386C9.25313 18.3334 9.14277 18.3334 9.04863 18.3152C8.68325 18.2445 8.38737 17.9767 8.28065 17.6202C8.25315 17.5283 8.24217 17.4185 8.2202 17.1989L8.2202 17.1989C8.17871 16.7839 8.15796 16.5764 8.10564 16.4454C7.8971 15.9232 7.29921 15.6756 6.78254 15.8973C6.6529 15.953 6.49151 16.085 6.16873 16.3491L6.16872 16.3491C5.99788 16.4889 5.91246 16.5588 5.82806 16.6043C5.5005 16.7809 5.10194 16.7611 4.79357 16.5527C4.71413 16.499 4.63608 16.421 4.48001 16.2649L4.48 16.2649L3.73546 15.5204C3.57939 15.3643 3.50135 15.2863 3.44767 15.2068C3.23931 14.8984 3.21943 14.4999 3.39607 14.1723C3.44158 14.0879 3.51147 14.0025 3.65124 13.8317L3.65124 13.8317L3.65125 13.8317C3.91533 13.5089 4.04737 13.3475 4.10301 13.2179C4.32479 12.7012 4.07713 12.1033 3.55496 11.8948C3.42395 11.8424 3.21648 11.8217 2.80152 11.7802L2.8015 11.7802C2.58189 11.7582 2.47209 11.7473 2.38024 11.7198C2.0237 11.613 1.75592 11.3172 1.68521 10.9518C1.66699 10.8576 1.66699 10.7473 1.66699 10.5266V9.4737C1.66699 9.25289 1.66699 9.14248 1.68522 9.04832C1.75596 8.68299 2.02369 8.38715 2.38016 8.28042C2.47205 8.25291 2.58191 8.24192 2.80162 8.21995L2.80163 8.21995C3.21676 8.17844 3.42433 8.15768 3.55538 8.10533C4.07745 7.89677 4.32505 7.29899 4.10337 6.78236C4.04772 6.65267 3.91561 6.4912 3.65139 6.16827L3.65139 6.16826L3.65138 6.16825C3.51152 5.99731 3.44158 5.91183 3.39606 5.82738C3.21949 5.49987 3.23936 5.1014 3.44764 4.79308C3.50135 4.71358 3.57943 4.63549 3.7356 4.47933L3.7356 4.47932L4.48004 3.73489C4.63612 3.5788 4.71416 3.50076 4.79361 3.44708C5.10198 3.23873 5.50053 3.21885 5.8281 3.39549C5.9125 3.44099 5.99794 3.5109 6.16881 3.65071L6.16882 3.65072L6.16883 3.65072C6.49153 3.91475 6.65288 4.04677 6.78244 4.1024C7.29919 4.32428 7.89723 4.07657 8.10573 3.55427C8.158 3.42332 8.17874 3.21594 8.22022 2.80117C8.24217 2.58165 8.25315 2.47189 8.28062 2.38008C8.38732 2.02347 8.68327 1.75564 9.04873 1.68495C9.14282 1.66675 9.25312 1.66675 9.47374 1.66675H10.5268C10.7475 1.66675 10.8579 1.66675 10.952 1.68496C11.3174 1.75568 11.6133 2.02346 11.72 2.38ZM10.0003 13.3334C11.8413 13.3334 13.3337 11.841 13.3337 10.0001C13.3337 8.15913 11.8413 6.66675 10.0003 6.66675C8.15938 6.66675 6.66699 8.15913 6.66699 10.0001C6.66699 11.841 8.15938 13.3334 10.0003 13.3334Z" fill="#0C0D0F" fill-opacity="0.25"/>
<path d="M11.7804 2.80128L11.1834 2.86098V2.86098L11.7804 2.80128ZM11.72 2.38L11.1452 2.55205L11.72 2.38ZM11.895 3.55471L11.3378 3.77723L11.3378 3.77723L11.895 3.55471ZM13.2181 4.10277L13.4548 4.65412L13.4548 4.65412L13.2181 4.10277ZM13.8319 3.65103L13.4719 3.17103L13.4617 3.17863L13.4519 3.18665L13.8319 3.65103ZM13.8319 3.65102L14.1919 4.13102L14.2155 4.11329L14.2373 4.09332L13.8319 3.65102ZM13.8319 3.65102L13.452 3.18664L13.4389 3.19732L13.4265 3.20872L13.8319 3.65102ZM14.1725 3.39587L14.4573 3.92398V3.92398L14.1725 3.39587ZM15.207 3.44747L15.543 2.95033L15.543 2.95032L15.207 3.44747ZM15.5206 3.73525L15.0963 4.15951L15.0963 4.15951L15.5206 3.73525ZM16.2651 4.4798L16.6894 4.05554L16.2651 4.4798ZM16.5529 4.79336L16.0558 5.12928L16.0558 5.12928L16.5529 4.79336ZM16.6045 5.82787L17.1326 6.11266L17.1326 6.11265L16.6045 5.82787ZM16.3493 6.1685L16.7978 6.56712L16.8059 6.55794L16.8137 6.54844L16.3493 6.1685ZM16.3493 6.16851L15.9009 5.76989L15.8927 5.77907L15.885 5.78857L16.3493 6.16851ZM15.8976 6.78228L16.4489 7.01894L16.4489 7.01894L15.8976 6.78228ZM16.4456 8.1054L16.6682 7.54819H16.6682L16.4456 8.1054ZM17.1991 8.21996L17.1394 8.81698L17.1991 8.21996ZM17.6204 8.2804L17.4484 8.8552L17.4484 8.8552L17.6204 8.2804ZM18.3154 9.04838L18.9045 8.93438L18.9045 8.93437L18.3154 9.04838ZM18.3155 10.9517L17.7264 10.8377V10.8377L18.3155 10.9517ZM17.6203 11.7198L17.4483 11.145H17.4483L17.6203 11.7198ZM17.1992 11.7802L17.1395 11.1832L17.1395 11.1832L17.1992 11.7802ZM16.4461 11.8947L16.2237 11.3374H16.2237L16.4461 11.8947ZM15.898 13.218L16.4493 12.9813L16.4493 12.9813L15.898 13.218ZM16.3495 13.8314L15.8851 14.2113L15.904 14.2345L15.9252 14.2557L16.3495 13.8314ZM16.3495 13.8314L16.8139 13.4515L16.7949 13.4283L16.7738 13.4072L16.3495 13.8314ZM16.6045 14.1718L16.0764 14.4567V14.4567L16.6045 14.1718ZM16.5529 15.2065L16.0558 14.8706L16.0558 14.8706L16.5529 15.2065ZM15.2071 16.5523L15.543 17.0495L15.2071 16.5523ZM14.1725 16.6039L13.8878 17.132H13.8878L14.1725 16.6039ZM13.8319 16.3488L14.2119 15.8844L14.1892 15.8658L14.1648 15.8495L13.8319 16.3488ZM13.8319 16.3488L13.4571 16.8173L13.4774 16.8336L13.4991 16.848L13.8319 16.3488ZM13.8319 16.3488L13.4519 16.8132L13.4571 16.8173L13.8319 16.3488ZM13.2182 15.897L12.9815 16.4484L12.9815 16.4484L13.2182 15.897ZM11.895 16.4451L12.4523 16.6676V16.6676L11.895 16.4451ZM11.7805 17.1987L12.3688 17.3163L12.3746 17.2876L12.3775 17.2584L11.7805 17.1987ZM11.7805 17.1987L11.1921 17.081L11.1864 17.1098L11.1834 17.139L11.7805 17.1987ZM11.72 17.6203L11.1452 17.4482L11.1452 17.4482L11.72 17.6203ZM10.9521 18.3152L10.838 17.7261H10.838L10.9521 18.3152ZM9.04863 18.3152L8.93462 18.9043H8.93462L9.04863 18.3152ZM8.28065 17.6202L8.85545 17.4481L8.28065 17.6202ZM8.2202 17.1989L8.81723 17.1392L8.81527 17.1196L8.81204 17.1002L8.2202 17.1989ZM8.2202 17.1989L7.62318 17.2586L7.62514 17.2781L7.62837 17.2975L8.2202 17.1989ZM8.10564 16.4454L7.54843 16.6679V16.6679L8.10564 16.4454ZM6.78254 15.8973L7.01919 16.4487L7.01919 16.4487L6.78254 15.8973ZM6.16873 16.3491L5.78879 15.8847L5.76563 15.9037L5.74447 15.9249L6.16873 16.3491ZM6.16872 16.3491L6.54866 16.8135L6.57183 16.7946L6.59299 16.7734L6.16872 16.3491ZM5.82806 16.6043L5.54329 16.0762L5.54328 16.0762L5.82806 16.6043ZM4.79357 16.5527L5.12949 16.0556L5.12949 16.0556L4.79357 16.5527ZM4.48001 16.2649L4.90427 15.8406L4.8918 15.8282L4.87862 15.8165L4.48001 16.2649ZM4.48 16.2649L4.05574 16.6892L4.0682 16.7016L4.08138 16.7134L4.48 16.2649ZM3.73546 15.5204L3.3112 15.9446H3.3112L3.73546 15.5204ZM3.44767 15.2068L2.95052 15.5427L2.95052 15.5427L3.44767 15.2068ZM3.39607 14.1723L3.92418 14.4571L3.92418 14.4571L3.39607 14.1723ZM3.65124 13.8317L4.11573 14.2117L4.12405 14.2011L3.65124 13.8317ZM3.65124 13.8317L4.12415 14.2011L4.13124 14.1917L3.65124 13.8317ZM3.65125 13.8317L3.18687 13.4517L3.17885 13.4615L3.17125 13.4717L3.65125 13.8317ZM4.10301 13.2179L4.65436 13.4545L4.65436 13.4545L4.10301 13.2179ZM3.55496 11.8948L3.77748 11.3375H3.77747L3.55496 11.8948ZM2.80152 11.7802L2.70288 12.372L2.72226 12.3753L2.74182 12.3772L2.80152 11.7802ZM2.8015 11.7802L2.90014 11.1884L2.88076 11.1851L2.8612 11.1832L2.8015 11.7802ZM2.38024 11.7198L2.20819 12.2946L2.20819 12.2946L2.38024 11.7198ZM1.68521 10.9518L2.27428 10.8378L1.68521 10.9518ZM1.68522 9.04832L1.09616 8.93426L1.09616 8.93426L1.68522 9.04832ZM2.38016 8.28042L2.20806 7.70563H2.20806L2.38016 8.28042ZM2.80162 8.21995L2.86132 8.81697L2.88777 8.81433L2.91389 8.80935L2.80162 8.21995ZM2.80163 8.21995L2.74193 7.62293L2.71548 7.62557L2.68936 7.63055L2.80163 8.21995ZM3.55538 8.10533L3.77797 8.66251L3.55538 8.10533ZM4.10337 6.78236L4.65476 6.54577L4.10337 6.78236ZM3.65139 6.16827L4.11577 5.78833L4.10509 5.77527L4.09369 5.76283L3.65139 6.16827ZM3.65139 6.16826L3.1873 6.54856L3.19785 6.56143L3.2091 6.5737L3.65139 6.16826ZM3.65138 6.16825L3.18701 6.5482L3.1873 6.54855L3.65138 6.16825ZM3.39606 5.82738L3.9242 5.54266L3.9242 5.54266L3.39606 5.82738ZM3.44764 4.79308L2.95045 4.45722L2.95045 4.45722L3.44764 4.79308ZM3.7356 4.47933L3.31134 4.05506L3.31133 4.05506L3.7356 4.47933ZM3.7356 4.47932L3.31134 4.05506L3.7356 4.47932ZM4.48004 3.73489L4.9043 4.15915H4.9043L4.48004 3.73489ZM4.79361 3.44708L4.4577 2.94993L4.4577 2.94993L4.79361 3.44708ZM5.8281 3.39549L5.54332 3.9236L5.54332 3.9236L5.8281 3.39549ZM6.16881 3.65071L5.78882 4.11514L5.79639 4.12114L6.16881 3.65071ZM6.16882 3.65072L6.56393 3.19917L6.55282 3.18945L6.54124 3.18029L6.16882 3.65072ZM6.16883 3.65072L5.77372 4.10227L5.7812 4.1088L5.78888 4.11509L6.16883 3.65072ZM6.78244 4.1024L7.01917 3.55107L7.01917 3.55107L6.78244 4.1024ZM8.10573 3.55427L7.54849 3.33182L7.54849 3.33182L8.10573 3.55427ZM8.22022 2.80117L7.62319 2.74147V2.74147L8.22022 2.80117ZM8.28062 2.38008L8.85543 2.55208V2.55208L8.28062 2.38008ZM9.04873 1.68495L9.16268 2.27403L9.04873 1.68495ZM10.952 1.68496L10.838 2.27403V2.27403L10.952 1.68496ZM12.3775 2.74158C12.3582 2.54891 12.3429 2.36861 12.2948 2.20794L11.1452 2.55205C11.1521 2.57508 11.1588 2.61441 11.1834 2.86098L12.3775 2.74158ZM12.4522 3.3322C12.4537 3.33592 12.4431 3.30974 12.4278 3.20082C12.413 3.0955 12.3987 2.95412 12.3775 2.74158L11.1834 2.86098C11.2037 3.0634 11.2205 3.23323 11.2395 3.36814C11.258 3.49945 11.284 3.64251 11.3378 3.77723L12.4522 3.3322ZM12.9815 3.55142C12.7748 3.64013 12.5356 3.54107 12.4522 3.33219L11.3378 3.77723C11.6714 4.61272 12.6281 5.00898 13.4548 4.65412L12.9815 3.55142ZM13.4519 3.18665C13.2866 3.32191 13.1766 3.4118 13.0916 3.47578C13.0038 3.54195 12.9778 3.553 12.9815 3.55142L13.4548 4.65412C13.5881 4.5969 13.7076 4.51411 13.8135 4.43434C13.9224 4.35237 14.0544 4.24421 14.2118 4.1154L13.4519 3.18665ZM13.4719 3.17102L13.4719 3.17103L14.1919 4.13103L14.1919 4.13102L13.4719 3.17102ZM13.4265 3.20872L13.4265 3.20873L14.2373 4.09332L14.2373 4.09331L13.4265 3.20872ZM13.8877 2.86777C13.7401 2.94737 13.6018 3.06404 13.452 3.18664L14.2118 4.11539C14.4036 3.95848 14.4361 3.93539 14.4573 3.92398L13.8877 2.86777ZM15.543 2.95032C15.0496 2.61693 14.4118 2.58513 13.8877 2.86777L14.4573 3.92398C14.5883 3.85332 14.7478 3.86127 14.8711 3.94462L15.543 2.95032ZM15.9448 3.31098C15.8079 3.17407 15.6819 3.04422 15.543 2.95033L14.8711 3.94462C14.891 3.95808 14.9211 3.98429 15.0963 4.15951L15.9448 3.31098ZM16.6894 4.05554L15.9448 3.31098L15.0963 4.15951L15.8409 4.90407L16.6894 4.05554ZM17.0501 4.45744C16.9562 4.31847 16.8263 4.19246 16.6894 4.05554L15.8409 4.90407C16.0161 5.07929 16.0423 5.10935 16.0558 5.12928L17.0501 4.45744ZM17.1326 6.11265C17.4152 5.58854 17.3834 4.95083 17.0501 4.45743L16.0558 5.12928C16.1391 5.25262 16.1471 5.41205 16.0764 5.54308L17.1326 6.11265ZM16.8137 6.54844C16.9363 6.39858 17.053 6.26027 17.1326 6.11266L16.0764 5.54308C16.065 5.56424 16.0419 5.59677 15.885 5.78856L16.8137 6.54844ZM16.7978 6.56713L16.7978 6.56712L15.9009 5.76988L15.9009 5.76989L16.7978 6.56713ZM16.4489 7.01894C16.4474 7.02262 16.4584 6.99664 16.5246 6.90878C16.5886 6.82383 16.6785 6.71377 16.8137 6.54845L15.885 5.78857C15.7561 5.94601 15.648 6.07803 15.566 6.18686C15.4862 6.29279 15.4034 6.41231 15.3462 6.54562L16.4489 7.01894ZM16.6682 7.54819C16.4593 7.46477 16.3602 7.22561 16.4489 7.01894L15.3462 6.54562C14.9914 7.37232 15.3876 8.32896 16.2231 8.66261L16.6682 7.54819ZM17.2588 7.62294C17.0463 7.60168 16.9049 7.58743 16.7995 7.5726C16.6906 7.55726 16.6644 7.5467 16.6682 7.54819L16.2231 8.66261C16.3578 8.71641 16.5009 8.74238 16.6322 8.76087C16.7671 8.77987 16.937 8.79674 17.1394 8.81698L17.2588 7.62294ZM17.7925 7.7056C17.6318 7.6575 17.4515 7.64221 17.2588 7.62294L17.1394 8.81698C17.386 8.84164 17.4253 8.84831 17.4484 8.8552L17.7925 7.7056ZM18.9045 8.93437C18.7914 8.34977 18.3629 7.87636 17.7925 7.7056L17.4484 8.8552C17.591 8.89789 17.6981 9.01625 17.7264 9.1624L18.9045 8.93437ZM18.9337 9.47362C18.9337 9.27997 18.9364 9.09904 18.9045 8.93438L17.7264 9.16239C17.7309 9.186 17.7337 9.2258 17.7337 9.47362H18.9337ZM18.9337 10.5266V9.47362H17.7337V10.5266H18.9337ZM18.9045 11.0657C18.9364 10.9011 18.9337 10.7202 18.9337 10.5266H17.7337C17.7337 10.7744 17.7309 10.8141 17.7264 10.8377L18.9045 11.0657ZM17.7924 12.2946C18.3629 12.1239 18.7914 11.6504 18.9045 11.0657L17.7264 10.8377C17.6981 10.9839 17.591 11.1023 17.4483 11.145L17.7924 12.2946ZM17.2589 12.3772C17.4515 12.358 17.6317 12.3427 17.7924 12.2946L17.4483 11.145C17.4253 11.1519 17.386 11.1585 17.1395 11.1832L17.2589 12.3772ZM16.6685 12.4519C16.6648 12.4534 16.691 12.4429 16.7999 12.4275C16.9051 12.4127 17.0464 12.3985 17.2589 12.3772L17.1395 11.1832C16.9372 11.2034 16.7674 11.2203 16.6326 11.2392C16.5013 11.2577 16.3583 11.2837 16.2237 11.3374L16.6685 12.4519ZM16.4493 12.9813C16.3605 12.7745 16.4596 12.5353 16.6685 12.4519L16.2237 11.3374C15.388 11.671 14.9916 12.6279 15.3467 13.4548L16.4493 12.9813ZM16.8138 13.4515C16.6787 13.2862 16.5888 13.1762 16.5249 13.0913C16.4587 13.0035 16.4477 12.9776 16.4493 12.9813L15.3466 13.4548C15.4039 13.588 15.4866 13.7074 15.5663 13.8133C15.6483 13.9221 15.7564 14.054 15.8851 14.2113L16.8138 13.4515ZM16.7737 13.4071L16.7737 13.4071L15.9252 14.2557L15.9252 14.2557L16.7737 13.4071ZM16.7738 13.4072L16.7737 13.4071L15.9252 14.2557L15.9252 14.2557L16.7738 13.4072ZM17.1326 13.887C17.053 13.7395 16.9364 13.6012 16.8139 13.4515L15.8851 14.2114C16.0419 14.403 16.065 14.4355 16.0764 14.4567L17.1326 13.887ZM17.05 15.5425C17.3835 15.049 17.4153 14.4112 17.1326 13.887L16.0764 14.4567C16.1471 14.5877 16.1392 14.7472 16.0558 14.8706L17.05 15.5425ZM16.6895 15.9442C16.8264 15.8073 16.9561 15.6814 17.05 15.5425L16.0558 14.8706C16.0423 14.8905 16.0161 14.9205 15.841 15.0956L16.6895 15.9442ZM15.9449 16.6888L16.6895 15.9442L15.841 15.0956L15.0963 15.8403L15.9449 16.6888ZM15.543 17.0495C15.6819 16.9556 15.808 16.8257 15.9449 16.6888L15.0963 15.8403C14.9211 16.0155 14.8911 16.0417 14.8711 16.0552L15.543 17.0495ZM13.8878 17.132C14.4119 17.4147 15.0496 17.3829 15.543 17.0495L14.8711 16.0552C14.7478 16.1385 14.5884 16.1465 14.4573 16.0758L13.8878 17.132ZM13.452 16.8131C13.6018 16.9358 13.7401 17.0524 13.8878 17.132L14.4573 16.0758C14.4362 16.0644 14.4037 16.0413 14.2119 15.8844L13.452 16.8131ZM13.4991 16.848L13.4991 16.848L14.1648 15.8495L14.1647 15.8495L13.4991 16.848ZM13.4571 16.8173L13.4571 16.8173L14.2067 15.8802L14.2067 15.8802L13.4571 16.8173ZM12.9815 16.4484C12.9778 16.4468 13.0038 16.4578 13.0917 16.524C13.1766 16.588 13.2867 16.6779 13.452 16.8131L14.2119 15.8844C14.0544 15.7556 13.9224 15.6474 13.8136 15.5655C13.7077 15.4857 13.5881 15.4029 13.4548 15.3457L12.9815 16.4484ZM12.4523 16.6676C12.5357 16.4587 12.7748 16.3597 12.9815 16.4484L13.4548 15.3457C12.6281 14.9908 11.6715 15.3871 11.3378 16.2226L12.4523 16.6676ZM12.3775 17.2584C12.3987 17.0458 12.413 16.9043 12.4278 16.799C12.4432 16.69 12.4537 16.6639 12.4523 16.6676L11.3378 16.2226C11.284 16.3573 11.2581 16.5004 11.2396 16.6317C11.2206 16.7666 11.2037 16.9365 11.1834 17.139L12.3775 17.2584ZM12.3688 17.3164L12.3688 17.3163L11.1921 17.081L11.1921 17.081L12.3688 17.3164ZM12.2948 17.7924C12.3429 17.6316 12.3582 17.4512 12.3775 17.2584L11.1834 17.139C11.1588 17.3857 11.1521 17.4251 11.1452 17.4482L12.2948 17.7924ZM11.0662 18.9042C11.6507 18.7911 12.124 18.3627 12.2948 17.7924L11.1452 17.4482C11.1025 17.5907 10.9842 17.6978 10.838 17.7261L11.0662 18.9042ZM10.5267 18.9334C10.7204 18.9334 10.9014 18.9361 11.0662 18.9042L10.838 17.7261C10.8144 17.7307 10.7746 17.7334 10.5267 17.7334V18.9334ZM9.47386 18.9334H10.5267V17.7334H9.47386V18.9334ZM8.93462 18.9043C9.09928 18.9361 9.28022 18.9334 9.47386 18.9334V17.7334C9.22604 17.7334 9.18625 17.7307 9.16264 17.7261L8.93462 18.9043ZM7.70584 17.7922C7.8766 18.3627 8.35001 18.7911 8.93462 18.9043L9.16264 17.7261C9.01649 17.6978 8.89814 17.5907 8.85545 17.4481L7.70584 17.7922ZM7.62318 17.2586C7.64245 17.4513 7.65775 17.6316 7.70584 17.7922L8.85545 17.4481C8.84855 17.4251 8.84189 17.3858 8.81723 17.1392L7.62318 17.2586ZM7.62837 17.2975L7.62837 17.2975L8.81204 17.1002L8.81204 17.1002L7.62837 17.2975ZM7.54843 16.6679C7.54694 16.6642 7.5575 16.6904 7.57284 16.7993C7.58767 16.9046 7.60193 17.046 7.62318 17.2586L8.81723 17.1392C8.79698 16.9367 8.78012 16.7669 8.76112 16.632C8.74263 16.5007 8.71665 16.3576 8.66284 16.2229L7.54843 16.6679ZM7.01919 16.4487C7.22586 16.36 7.46501 16.4591 7.54843 16.6679L8.66284 16.2229C8.32919 15.3874 7.37257 14.9912 6.54588 15.346L7.01919 16.4487ZM6.54867 16.8135C6.714 16.6782 6.82406 16.5883 6.90902 16.5243C6.99689 16.4582 7.02287 16.4471 7.01919 16.4487L6.54589 15.346C6.41257 15.4032 6.29303 15.486 6.1871 15.5658C6.07827 15.6478 5.94624 15.7559 5.78879 15.8847L6.54867 16.8135ZM6.59299 16.7734L6.59299 16.7734L5.74447 15.9249L5.74446 15.9249L6.59299 16.7734ZM6.11284 17.1324C6.26047 17.0528 6.39879 16.9361 6.54866 16.8135L5.78878 15.8848C5.59697 16.0417 5.56445 16.0648 5.54329 16.0762L6.11284 17.1324ZM4.45766 17.0499C4.95104 17.3832 5.58874 17.415 6.11284 17.1324L5.54328 16.0762C5.41226 16.1469 5.25283 16.1389 5.12949 16.0556L4.45766 17.0499ZM4.05574 16.6892C4.19266 16.8261 4.31869 16.956 4.45766 17.0499L5.12949 16.0556C5.10957 16.0421 5.07951 16.0159 4.90427 15.8406L4.05574 16.6892ZM4.08138 16.7134L4.08139 16.7134L4.87862 15.8165L4.87862 15.8165L4.08138 16.7134ZM3.3112 15.9446L4.05574 16.6892L4.90426 15.8406L4.15973 15.0961L3.3112 15.9446ZM2.95052 15.5427C3.04442 15.6817 3.17428 15.8077 3.3112 15.9446L4.15973 15.0961C3.9845 14.9209 3.95828 14.8908 3.94482 14.8709L2.95052 15.5427ZM2.86797 13.8875C2.58534 14.4116 2.61714 15.0493 2.95052 15.5427L3.94482 14.8709C3.86148 14.7475 3.85352 14.5881 3.92418 14.4571L2.86797 13.8875ZM3.18686 13.4517C3.06425 13.6016 2.94757 13.7399 2.86797 13.8875L3.92418 14.4571C3.93559 14.4359 3.95869 14.4034 4.11561 14.2116L3.18686 13.4517ZM3.17843 13.4623L3.17842 13.4623L4.12405 14.2011L4.12406 14.201L3.17843 13.4623ZM3.17125 13.4717L3.17124 13.4717L4.13124 14.1917L4.13125 14.1917L3.17125 13.4717ZM3.55166 12.9812C3.55324 12.9775 3.54219 13.0035 3.47602 13.0914C3.41203 13.1763 3.32214 13.2864 3.18687 13.4517L4.11562 14.2116C4.24444 14.0542 4.35261 13.9221 4.43457 13.8133C4.51435 13.7074 4.59714 13.5879 4.65436 13.4545L3.55166 12.9812ZM3.33243 12.452C3.54131 12.5354 3.64037 12.7745 3.55166 12.9812L4.65436 13.4545C5.00922 12.6278 4.61296 11.6712 3.77748 11.3375L3.33243 12.452ZM2.74182 12.3772C2.95436 12.3985 3.09574 12.4127 3.20106 12.4276C3.30998 12.4429 3.33616 12.4535 3.33244 12.452L3.77747 11.3375C3.64275 11.2837 3.49969 11.2578 3.36838 11.2393C3.23347 11.2203 3.06363 11.2034 2.86122 11.1832L2.74182 12.3772ZM2.70286 12.372L2.70288 12.372L2.90016 11.1884L2.90014 11.1884L2.70286 12.372ZM2.20819 12.2946C2.36885 12.3427 2.54914 12.358 2.7418 12.3772L2.8612 11.1832C2.61465 11.1585 2.57532 11.1519 2.55229 11.145L2.20819 12.2946ZM1.09614 11.0658C1.20928 11.6504 1.63773 12.1238 2.20819 12.2946L2.55229 11.145C2.40968 11.1023 2.30256 10.9839 2.27428 10.8378L1.09614 11.0658ZM1.06699 10.5266C1.06699 10.7202 1.06427 10.9011 1.09614 11.0658L2.27428 10.8378C2.26971 10.8142 2.26699 10.7744 2.26699 10.5266H1.06699ZM1.06699 9.4737V10.5266H2.26699V9.4737H1.06699ZM1.09616 8.93426C1.06427 9.09899 1.06699 9.27999 1.06699 9.4737H2.26699C2.26699 9.22579 2.26971 9.18598 2.27429 9.16237L1.09616 8.93426ZM2.20806 7.70563C1.6377 7.87641 1.20934 8.34975 1.09616 8.93426L2.27429 9.16237C2.30258 9.01624 2.40967 8.8979 2.55226 8.85521L2.20806 7.70563ZM2.74192 7.62293C2.54917 7.6422 2.36879 7.65751 2.20806 7.70563L2.55226 8.85521C2.5753 8.84831 2.61464 8.84164 2.86132 8.81697L2.74192 7.62293ZM2.68936 7.63055L2.68935 7.63055L2.91389 8.80935L2.9139 8.80935L2.68936 7.63055ZM3.33279 7.54814C3.33652 7.54665 3.31033 7.55722 3.20137 7.57257C3.09601 7.5874 2.95456 7.60167 2.74193 7.62293L2.86133 8.81697C3.06383 8.79672 3.23374 8.77985 3.36871 8.76084C3.50007 8.74234 3.64319 8.71635 3.77797 8.66251L3.33279 7.54814ZM3.55199 7.01896C3.64066 7.22561 3.54162 7.46472 3.33279 7.54814L3.77797 8.66251C4.61327 8.32882 5.00945 7.37237 4.65476 6.54577L3.55199 7.01896ZM3.18702 6.54821C3.32235 6.71362 3.4123 6.82373 3.47632 6.90874C3.54253 6.99665 3.55357 7.02265 3.55199 7.01896L4.65476 6.54577C4.59752 6.41239 4.51469 6.2928 4.43488 6.18683C4.35288 6.07794 4.24465 5.94585 4.11577 5.78833L3.18702 6.54821ZM3.2091 6.5737L3.2091 6.5737L4.09369 5.76283L4.09368 5.76283L3.2091 6.5737ZM3.1873 6.54855L3.1873 6.54856L4.11548 5.78797L4.11547 5.78796L3.1873 6.54855ZM2.86792 6.11211C2.94755 6.25983 3.06431 6.39823 3.18701 6.5482L4.11576 5.78831C3.95872 5.59638 3.93561 5.56384 3.9242 5.54266L2.86792 6.11211ZM2.95045 4.45722C2.61721 4.95053 2.58541 5.58808 2.86792 6.11211L3.9242 5.54266C3.85357 5.41165 3.86152 5.25227 3.94483 5.12894L2.95045 4.45722ZM3.31133 4.05506C3.17433 4.19206 3.04439 4.31815 2.95045 4.45722L3.94483 5.12894C3.9583 5.109 3.98453 5.07892 4.15986 4.90359L3.31133 4.05506ZM3.31134 4.05506L3.31134 4.05506L4.15986 4.90359L4.15987 4.90359L3.31134 4.05506ZM4.05577 3.31062L3.31134 4.05506L4.15987 4.90359L4.9043 4.15915L4.05577 3.31062ZM4.4577 2.94993C4.31872 3.04383 4.1927 3.1737 4.05577 3.31062L4.9043 4.15915C5.07954 3.98391 5.1096 3.9577 5.12953 3.94423L4.4577 2.94993ZM6.11288 2.86738C5.58877 2.58476 4.95108 2.61656 4.4577 2.94993L5.12953 3.94423C5.25287 3.86089 5.4123 3.85294 5.54332 3.9236L6.11288 2.86738ZM6.54876 3.18634C6.39885 3.06369 6.26051 2.94698 6.11288 2.86737L5.54332 3.9236C5.56448 3.93501 5.59702 3.95811 5.78887 4.11508L6.54876 3.18634ZM6.54124 3.18029L6.54124 3.18028L5.79639 4.12114L5.7964 4.12114L6.54124 3.18029ZM6.56393 3.19917L6.56393 3.19917L5.77372 4.10226L5.77372 4.10227L6.56393 3.19917ZM7.01917 3.55107C7.02286 3.55266 6.99689 3.54161 6.90904 3.47544C6.8241 3.41146 6.71406 3.32158 6.54877 3.18634L5.78888 4.11509C5.9463 4.24389 6.07829 4.35203 6.18709 4.43397C6.29297 4.51373 6.41246 4.5965 6.54571 4.65372L7.01917 3.55107ZM7.54849 3.33182C7.46509 3.54074 7.22587 3.63983 7.01917 3.55107L6.54571 4.65372C7.37251 5.00874 8.32937 4.6124 8.66297 3.77672L7.54849 3.33182ZM7.62319 2.74147C7.60195 2.95391 7.5877 3.09523 7.57288 3.2005C7.55755 3.30937 7.547 3.33554 7.54849 3.33182L8.66297 3.77672C8.71673 3.64205 8.74268 3.49906 8.76116 3.3678C8.78015 3.23295 8.79701 3.06319 8.81724 2.86087L7.62319 2.74147ZM7.7058 2.20808C7.65774 2.36867 7.64245 2.54889 7.62319 2.74147L8.81724 2.86087C8.84189 2.61441 8.84855 2.5751 8.85543 2.55208L7.7058 2.20808ZM8.93478 1.09587C8.35005 1.20898 7.87653 1.6375 7.7058 2.20808L8.85543 2.55208C8.89812 2.40944 9.0165 2.30231 9.16268 2.27403L8.93478 1.09587ZM9.47374 1.06675C9.2802 1.06675 9.09936 1.06403 8.93478 1.09587L9.16268 2.27403C9.18627 2.26946 9.22605 2.26675 9.47374 2.26675V1.06675ZM10.5268 1.06675H9.47374V2.26675H10.5268V1.06675ZM11.066 1.0959C10.9014 1.06403 10.7204 1.06675 10.5268 1.06675V2.26675C10.7746 2.26675 10.8144 2.26947 10.838 2.27403L11.066 1.0959ZM12.2948 2.20794C12.1241 1.63748 11.6506 1.20904 11.066 1.09589L10.838 2.27403C10.9842 2.30232 11.1025 2.40943 11.1452 2.55205L12.2948 2.20794ZM12.7337 10.0001C12.7337 11.5097 11.5099 12.7334 10.0003 12.7334V13.9334C12.1726 13.9334 13.9337 12.1724 13.9337 10.0001H12.7337ZM10.0003 7.26675C11.5099 7.26675 12.7337 8.4905 12.7337 10.0001H13.9337C13.9337 7.82776 12.1726 6.06675 10.0003 6.06675V7.26675ZM7.26699 10.0001C7.26699 8.4905 8.49075 7.26675 10.0003 7.26675V6.06675C7.82801 6.06675 6.06699 7.82776 6.06699 10.0001H7.26699ZM10.0003 12.7334C8.49075 12.7334 7.26699 11.5097 7.26699 10.0001H6.06699C6.06699 12.1724 7.82801 13.9334 10.0003 13.9334V12.7334Z" fill="white" fill-opacity="0.8"/>
</svg>
