<svg width="20" height="20" viewBox="0 0 20 20" fill="none" xmlns="http://www.w3.org/2000/svg">
<path d="M0 8C0 4.22876 0 2.34315 1.17157 1.17157C2.34315 0 4.22876 0 8 0H12C15.7712 0 17.6569 0 18.8284 1.17157C20 2.34315 20 4.22876 20 8V12C20 15.7712 20 17.6569 18.8284 18.8284C17.6569 20 15.7712 20 12 20H8C4.22876 20 2.34315 20 1.17157 18.8284C0 17.6569 0 15.7712 0 12V8Z" fill="#0C0D0F" fill-opacity="0.25"/>
<circle cx="10.0001" cy="7.7777" r="4.44444" fill="white" fill-opacity="0.8"/>
<path fill-rule="evenodd" clip-rule="evenodd" d="M17.741 19.3371C17.7536 19.4463 17.69 19.5499 17.5862 19.5859C16.3909 20.0002 14.667 20.0002 12.0001 20.0002H8.00013C5.33492 20.0002 3.61149 20.0002 2.41631 19.5866C2.3124 19.5507 2.24877 19.4471 2.26134 19.3378C2.64922 15.9669 5.96644 13.3335 10.0012 13.3335C14.0357 13.3335 17.3527 15.9665 17.741 19.3371Z" fill="white" fill-opacity="0.8"/>
</svg>
