<svg width="20" height="20" viewBox="0 0 20 20" fill="none" xmlns="http://www.w3.org/2000/svg">
<path fill-rule="evenodd" clip-rule="evenodd" d="M13.3145 10.3595C13.3272 10.2414 13.3337 10.1215 13.3337 10.0001C13.3337 8.15913 11.8413 6.66675 10.0003 6.66675C9.87888 6.66675 9.75896 6.67324 9.64088 6.6859L10.7421 7.78713C11.4341 8.01898 11.9814 8.56632 12.2133 9.25831L13.3145 10.3595ZM7.83684 9.1245C7.72731 9.39487 7.66699 9.69043 7.66699 10.0001C7.66699 11.2887 8.71166 12.3334 10.0003 12.3334C10.31 12.3334 10.6055 12.2731 10.8759 12.1636L11.6242 12.9118C11.1437 13.1804 10.5899 13.3334 10.0003 13.3334C8.15938 13.3334 6.66699 11.841 6.66699 10.0001C6.66699 9.41053 6.82004 8.85673 7.08858 8.37624L7.83684 9.1245Z" fill="white" fill-opacity="0.8"/>
<path fill-rule="evenodd" clip-rule="evenodd" d="M13.2966 14.5843L12.5556 13.8433C11.7494 14.2453 10.8875 14.5 10.0003 14.5C8.68473 14.5 7.425 13.94 6.31978 13.1701C5.21773 12.4024 4.30766 11.4524 3.70213 10.737C3.27539 10.2328 3.2334 10.1476 3.2334 10C3.2334 9.85235 3.27539 9.76719 3.70213 9.26302C4.22351 8.64703 4.97065 7.85714 5.87172 7.15942L5.15938 6.44708C4.22925 7.18223 3.46782 7.992 2.93884 8.61696L2.88087 8.68524C2.54583 9.07925 2.2334 9.44668 2.2334 10C2.2334 10.5533 2.54583 10.9207 2.88087 11.3148L2.93884 11.383C3.57556 12.1353 4.54906 13.1553 5.74818 13.9906C6.94413 14.8238 8.40319 15.5 10.0003 15.5C11.1935 15.5 12.3096 15.1226 13.2966 14.5843ZM7.85013 4.89519C8.52759 4.64977 9.24865 4.5 10.0003 4.5C11.5974 4.5 13.0565 5.17621 14.2524 6.00936C15.4515 6.84471 16.425 7.86471 17.0617 8.61696L17.1197 8.68524C17.4548 9.07925 17.7672 9.44668 17.7672 10C17.7672 10.5533 17.4548 10.9208 17.1197 11.3148L17.0617 11.383C16.7141 11.7937 16.2661 12.2842 15.7359 12.7809L15.0283 12.0734C15.5327 11.6032 15.9624 11.134 16.2985 10.737C16.7252 10.2328 16.7672 10.1476 16.7672 10C16.7672 9.85235 16.7252 9.76719 16.2985 9.26302C15.6929 8.54761 14.7829 7.59762 13.6808 6.82989C12.5756 6.05995 11.3159 5.5 10.0003 5.5C9.54039 5.5 9.08732 5.56843 8.64528 5.69034L7.85013 4.89519Z" fill="white" fill-opacity="0.8"/>
<path d="M4.16699 1.66675L17.5003 15.0001" stroke="white" stroke-opacity="0.8"/>
</svg>
