<svg width="32" height="20" viewBox="0 0 32 20" fill="none" xmlns="http://www.w3.org/2000/svg">
<path d="M30.0634 20H26.7134C25.5239 20 24.9112 19.3034 23.8975 18.149C23.4886 17.6855 22.9878 17.1145 22.3204 16.4317C20.9831 15.1145 19.9868 14.4138 19.45 14.4138C19.3727 14.4138 19.3181 14.4165 19.2808 14.4193C19.2169 14.7131 19.2235 15.52 19.2328 16.4386C19.2368 16.8786 19.2408 17.3876 19.2408 17.9779C19.2408 19.6552 18.0167 20 16.1799 20C12.2385 20 8.21582 17.5462 5.41727 13.4359C1.36531 7.62758 0 2.91862 0 1.66345C0 0.606894 0.660676 0.00137733 1.81419 0.00137733H5.16552C6.56546 0.00137733 7.00369 0.924136 7.30472 1.78758C8.94309 6.68276 11.3474 10.0359 12.1399 10.4538C12.1559 10.3434 12.1705 10.1628 12.1705 9.87173V4.82069C12.1079 3.64414 11.727 3.16138 11.3913 2.73379C11.1329 2.4069 10.8412 2.03724 10.8412 1.47586C10.8412 0.765517 11.4233 0 12.361 0H17.6278C18.363 0 19.2382 0.33931 19.2382 1.95172V8.74207C19.2382 8.85379 19.2488 8.93655 19.2635 8.99586C19.4326 8.91724 19.6964 8.70069 20.2039 8.18207C22.4869 5.57103 24.1573 1.43862 24.1733 1.39724C24.5502 0.48138 25.2655 1.46837e-06 26.2459 1.46837e-06H29.5958C30.2872 1.46837e-06 30.788 0.209656 31.0837 0.622071C31.2795 0.893795 31.4673 1.37931 31.2462 2.14897C31.2449 2.15311 31.2435 2.15724 31.2422 2.16276C30.768 4.17931 27.3448 9.26483 26.6508 10.2083L26.6534 10.2097C26.5935 10.3076 26.4363 10.5669 26.435 10.6359C26.435 10.6359 26.443 10.7186 26.6135 10.9421C26.6162 10.9462 26.6201 10.9517 26.6241 10.9559C26.6961 11.0455 26.9025 11.2579 27.1889 11.5572C30.4523 14.9545 32.501 17.5283 31.8936 19.04C31.7151 19.4786 31.2555 20 30.0634 20ZM19.4513 13.0345C20.1213 13.0345 21.095 13.3214 23.2502 15.4414C23.9468 16.1545 24.4636 16.7421 24.8845 17.2207C25.8596 18.3297 26.138 18.6207 26.7161 18.6207H30.066C30.475 18.6207 30.6401 18.5366 30.6654 18.5062C30.76 18.2883 30.7307 17.2014 26.2445 12.5297C25.8942 12.1641 25.6504 11.9007 25.5652 11.7931C24.8233 10.8152 25.1083 10.1655 25.5252 9.47724C25.5572 9.42207 25.5985 9.37379 25.6438 9.33103C26.1726 8.56 29.6105 3.4469 29.9555 1.80552C29.9621 1.77379 29.9715 1.74207 29.9821 1.71172C30.0287 1.53379 30.0141 1.45242 30.0114 1.43724H30.0101C29.9981 1.43724 29.8916 1.37931 29.5958 1.37931H26.2459C25.733 1.37931 25.5386 1.6 25.4014 1.93104C25.3321 2.10345 23.6258 6.32138 21.1642 9.13517C20.2931 10.029 19.7989 10.4152 19.1063 10.4152C18.5096 10.4152 17.9062 9.84 17.9062 8.74207V1.95173C17.9062 1.52 17.8342 1.41104 17.8289 1.40414C17.8262 1.40414 17.773 1.37931 17.6278 1.37931H12.3597C12.2145 1.37931 12.1745 1.45793 12.1719 1.47862C12.1719 1.54483 12.2931 1.69931 12.4223 1.86207C12.8166 2.36276 13.4133 3.12 13.5025 4.78207L13.5039 9.87034C13.5039 10.52 13.5039 11.8703 12.2185 11.8703C10.3217 11.8703 7.36599 6.18069 6.04864 2.24827C5.75959 1.42069 5.60641 1.38069 5.16552 1.38069H1.81419C1.332 1.38069 1.332 1.45793 1.332 1.66345C1.332 2.21655 2.28572 6.59172 6.50152 12.6345C9.05497 16.3862 12.6727 18.6207 16.1812 18.6207C17.9102 18.6207 17.9102 18.3517 17.9102 17.9779C17.9102 17.3931 17.9062 16.8869 17.9022 16.451C17.8848 14.5807 17.8782 13.88 18.3297 13.4083C18.6454 13.08 19.0557 13.0345 19.4513 13.0345Z" fill="white" fill-opacity="0.8"/>
</svg>
